<?xml version="1.0" encoding="UTF-8" standalone="no"?>
<!-- Created with Inkscape (http://www.inkscape.org/) -->

<svg
   width="130"
   height="130"
   viewBox="0 0 34.395833 34.395833"
   version="1.1"
   id="svg1"
   inkscape:version="1.3.2 (091e20ef0f, 2023-11-25, custom)"
   sodipodi:docname="icon.svg"
   inkscape:export-filename="icon.png"
   inkscape:export-xdpi="378.09232"
   inkscape:export-ydpi="378.09232"
   xmlns:inkscape="http://www.inkscape.org/namespaces/inkscape"
   xmlns:sodipodi="http://sodipodi.sourceforge.net/DTD/sodipodi-0.dtd"
   xmlns="http://www.w3.org/2000/svg"
   xmlns:svg="http://www.w3.org/2000/svg">
  <sodipodi:namedview
     id="namedview1"
     pagecolor="#505050"
     bordercolor="#ffffff"
     borderopacity="1"
     inkscape:showpageshadow="0"
     inkscape:pageopacity="0"
     inkscape:pagecheckerboard="1"
     inkscape:deskcolor="#d1d1d1"
     inkscape:document-units="mm"
     inkscape:zoom="3.4012767"
     inkscape:cx="74.089827"
     inkscape:cy="75.118853"
     inkscape:window-width="1635"
     inkscape:window-height="1633"
     inkscape:window-x="26"
     inkscape:window-y="23"
     inkscape:window-maximized="0"
     inkscape:current-layer="layer1" />
  <defs
     id="defs1">
    <rect
       x="49.317421"
       y="0"
       width="116.87075"
       height="91.419029"
       id="rect1" />
  </defs>
  <g
     inkscape:label="Layer 1"
     inkscape:groupmode="layer"
     id="layer1"
     transform="translate(-42.880616,-68.093397)">
    <rect
       style="fill:#023436;fill-opacity:1;fill-rule:evenodd;stroke:none;stroke-width:2.00001"
       id="rect2"
       width="34.395832"
       height="34.395832"
       x="-77.276451"
       y="68.093399"
       transform="scale(-1,1)" />
    <g
       id="g1"
       transform="matrix(0.32685132,0,0,0.32685132,33.298644,53.765481)"
       style="stroke-width:3.0595">
      <path
         d="m 101.11729,93.913994 c -0.0935,4.350209 -1.61379,8.560086 -4.560706,12.629636 -2.946916,4.06955 -6.455149,6.80597 -10.5247,8.20927 v -3.5784 c 3.180797,-1.30974 5.893832,-3.64856 8.139101,-7.01647 2.292047,-3.3679 3.461455,-6.782581 3.508233,-10.244036 -0.04679,-3.461457 -1.216186,-6.852749 -3.508233,-10.173877 -2.245269,-3.367903 -4.958304,-5.706725 -8.139101,-7.016466 v -3.648563 c 4.069551,1.45007 7.577784,4.20988 10.5247,8.279431 2.946916,4.022774 4.467156,8.209266 4.560706,12.559475 z m -8.209269,0 c 0,2.151718 -0.67826,4.396987 -2.034775,6.735806 -1.356515,2.33882 -2.970303,4.04616 -4.841362,5.12202 v -4.13972 c 0.374197,-0.28066 0.725033,-0.63148 1.05247,-1.05247 0.748425,-0.795191 1.356515,-1.847661 1.824281,-3.157403 0.467766,-1.309742 0.701647,-2.479151 0.701647,-3.508233 0,-1.262964 -0.350823,-2.642869 -1.05247,-4.139715 -0.701647,-1.496846 -1.543623,-2.666258 -2.525928,-3.508234 V 82.12633 c 1.871059,1.075858 3.484847,2.783199 4.841362,5.122021 1.356515,2.292045 2.034775,4.513926 2.034775,6.665643 z M 77.612124,71.531466 H 76.34916 L 59.860464,83.389294 59.018488,84.020776 H 46.388849 v 19.856594 h 12.629639 l 0.841976,0.63148 16.488696,11.78767 h 1.262964 z m 3.508234,-3.438069 V 119.80475 H 75.226526 L 57.966018,107.24528 H 42.880616 V 80.652872 H 57.966018 L 75.226526,68.093397 Z"
         id="text1"
         style="font-size:16px;line-height:1.25;font-family:'Sandstone Icons';-inkscape-font-specification:'Sandstone Icons';letter-spacing:0px;word-spacing:0px;white-space:pre;fill:#ffffff;stroke-width:0.809491"
         aria-label="󰄽  󰀭"
         sodipodi:nodetypes="cscccccccccsscccssscccscccccccccccccccccccc" />
      <path
         d="m 116.36453,122.73306 h 4.62073 v 13.54228 c 0,0.40283 -0.0235,0.73458 -0.0714,0.99523 -0.047,0.28436 -0.17775,0.53316 -0.39101,0.74643 -0.18958,0.23696 -0.42653,0.43837 -0.71091,0.60425 -1.49285,0.66349 -3.35299,1.22034 -5.58042,1.67057 -2.20374,0.47391 -4.11127,0.71088 -5.7226,0.71088 h -0.10663 -0.10663 c -1.04263,0 -2.23928,-0.10663 -3.58995,-0.31989 -1.32697,-0.21327 -2.64211,-0.49762 -3.94539,-0.85306 -1.32697,-0.35544 -2.464385,-0.74643 -3.412228,-1.17296 -0.426525,-0.16587 -0.781937,-0.46206 -1.066321,-0.88859 -0.284379,-0.42654 -0.426526,-0.86491 -0.426526,-1.31513 v -0.17773 -13.54228 h 4.620725 v -7.46425 c 0.0235,-2.08525 0.80571,-3.8743 2.34591,-5.36715 1.54024,-1.51655 3.35298,-2.27482 5.43823,-2.27482 h 0.14215 0.17775 c 2.08525,0 3.88615,0.74643 5.40271,2.23928 1.54024,1.46915 2.33406,3.27005 2.38144,5.40269 z m -6.64675,9.81015 v -3.94538 h -2.63026 v 3.94538 z m 3.9454,-9.81015 v -7.46425 c -0.0235,-1.37437 -0.545,-2.54733 -1.56395,-3.51886 -0.99523,-0.97154 -2.16818,-1.45731 -3.51886,-1.45731 h -0.10663 -0.17775 c -0.66347,0 -1.31513,0.13033 -1.95493,0.39099 -0.61611,0.26066 -1.14925,0.6161 -1.59948,1.06632 -0.42653,0.45022 -0.79378,0.97154 -1.10186,1.56394 -0.28438,0.5924 -0.43836,1.24404 -0.46204,1.95492 v 7.46425 z"
         style="font-size:16px;line-height:1.25;font-family:'Sandstone Icons';-inkscape-font-specification:'Sandstone Icons';letter-spacing:0px;word-spacing:0px;white-space:pre;fill:#ffffff;stroke-width:3.0595"
         id="path1" />
    </g>
  </g>
</svg>
